<svg id="Laag_1" data-name="Laag 1" xmlns="http://www.w3.org/2000/svg" viewBox="0 0 291.21 100.18"><defs><style>.cls-1{fill:#00538b;}.cls-2{fill:#94c679;}</style></defs><path class="cls-1" d="M100,102.27c-4.62,0-8.26,1.43-10.8,4.26s-3.81,6.81-3.81,11.86,1.3,9,3.87,11.88,6.25,4.27,10.91,4.27a22.27,22.27,0,0,0,5.59-.72,31.5,31.5,0,0,0,5.93-2.27l.4-.2-2.11-5-.44.19a28.1,28.1,0,0,1-4.77,1.65,19.63,19.63,0,0,1-4.31.47,7.87,7.87,0,0,1-6.09-2.35A10.46,10.46,0,0,1,92,119.91h21v-1.72c0-5.28-1.08-9.28-3.21-11.91S104.38,102.27,100,102.27Zm0,5.86a6,6,0,0,1,4.51,1.65,7.39,7.39,0,0,1,1.81,4.53H92.4C93.36,110.15,95.86,108.13,100,108.13Z" transform="translate(-49.42 -47.81)"/><path class="cls-1" d="M200.35,106.5c-2.59-2.85-6.25-4.29-10.89-4.29s-8.33,1.44-10.91,4.29-3.87,6.83-3.87,11.89,1.3,9,3.87,11.88,6.25,4.27,10.91,4.27,8.31-1.44,10.89-4.27,3.87-6.82,3.87-11.88S202.92,109.34,200.35,106.5Zm-4.82,19.6a8.44,8.44,0,0,1-12.15,0c-1.4-1.75-2.11-4.34-2.11-7.71s.71-6,2.11-7.73a8.41,8.41,0,0,1,12.15,0c1.41,1.76,2.13,4.35,2.13,7.72S196.94,124.35,195.53,126.1Z" transform="translate(-49.42 -47.81)"/><path class="cls-1" d="M140.92,104.42a12,12,0,0,0-2.86-1.28,13.56,13.56,0,0,0-4-.58c-4.92,0-8.78,1.45-11.47,4.31s-4,6.9-4,12c0,4.94,1.2,8.81,3.58,11.52s5.8,4.11,10.14,4.11a11.66,11.66,0,0,0,8.14-3.21v3.22a7.39,7.39,0,0,1-2.08,5.63,8.5,8.5,0,0,1-6,2,21.31,21.31,0,0,1-5.23-.72,20.44,20.44,0,0,1-4.84-1.88l-.45-.24-2.46,5.29.37.22a21.15,21.15,0,0,0,5.66,2.35A26.37,26.37,0,0,0,132,148c4.54,0,8.19-1.22,10.85-3.62a12.78,12.78,0,0,0,4-9.93V102.79h-5.37Zm-3.46,22.74a8,8,0,0,1-4.84,1.52,6.49,6.49,0,0,1-5.51-2.49c-1.31-1.69-2-4.14-2-7.28,0-3.36.83-6,2.48-7.94a8.52,8.52,0,0,1,6.77-2.84,13.08,13.08,0,0,1,3.3.44,11.07,11.07,0,0,1,2.72,1.11V123A8.3,8.3,0,0,1,137.46,127.16Z" transform="translate(-49.42 -47.81)"/><path class="cls-1" d="M168.28,102.27a9.75,9.75,0,0,0-4.87,1.27,11.17,11.17,0,0,0-3.17,2.78l-.57-3.53h-5.29v31.29h6.45v-21.7a7.25,7.25,0,0,1,2.58-2.79,7.77,7.77,0,0,1,3.91-.89,28,28,0,0,1,3.79.6l.47.09,1.17-6.35-.42-.12A15.24,15.24,0,0,0,168.28,102.27Z" transform="translate(-49.42 -47.81)"/><path class="cls-1" d="M79.68,91.35,72.24,113c-1.77,5.16-3.19,9.45-4.24,12.77-1.13-3.62-2.54-7.9-4.21-12.77L56.35,91.35H49.42l14.49,42.73h8.18L86.61,91.35Z" transform="translate(-49.42 -47.81)"/><path class="cls-2" d="M270.4,54.91a88.41,88.41,0,0,0-14.6,6c8.41-8.17,10.86-12.66-2.65-6.35-33.42,15.62-44.2,46.13-41.44,43.81,3.51-3,12.79-10.4,22.47-18.47a42.52,42.52,0,0,0-5.83,32.63c4.71,20.55,33.59,5.8,42.94,1.12,5.47-2.75-20.23-31.45-16.44-29.81,55.57,24,51.49-19.44,84.28-27.66a2,2,0,0,0,.28-3.72C311.55,40.88,271.47,54.58,270.4,54.91Z" transform="translate(-49.42 -47.81)"/></svg>